<svg width="101" height="32" viewBox="0 0 101 32" fill="none" xmlns="http://www.w3.org/2000/svg">
<path fill-rule="evenodd" clip-rule="evenodd" d="M15.7345 13.9077C15.7345 18.9804 12.1383 23.1045 7.06564 23.1045H0.161865V4.71094H7.06564C12.1383 4.71094 15.7345 8.83506 15.7345 13.9077ZM14.3736 13.9077C14.3736 9.54441 11.4042 6.03066 7.06564 6.03066H1.55581V21.7848H7.06564C11.4042 21.7848 14.3736 18.271 14.3736 13.9077Z" fill="#232E52"/>
<path fill-rule="evenodd" clip-rule="evenodd" d="M18.1018 16.5303C18.1018 12.6454 21.1702 9.67603 25.0056 9.67603C28.8163 9.67603 31.8929 12.6454 31.8929 16.5303C31.8929 20.4235 28.8163 23.3929 25.0056 23.3929C21.1702 23.3929 18.1018 20.4235 18.1018 16.5303ZM30.5484 16.5303C30.5484 13.4042 28.1317 10.938 25.0056 10.938C21.8795 10.938 19.438 13.4042 19.438 16.5303C19.438 19.6564 21.8795 22.1309 25.0056 22.1309C28.1317 22.1309 30.5484 19.6564 30.5484 16.5303Z" fill="#232E52"/>
<path fill-rule="evenodd" clip-rule="evenodd" d="M34.1445 16.5303C34.1445 12.6454 37.2211 9.67603 41.0566 9.67603C44.8672 9.67603 47.9356 12.6454 47.9356 16.5303C47.9356 20.4235 44.8672 23.3929 41.0566 23.3929C37.2211 23.3929 34.1445 20.4235 34.1445 16.5303ZM46.5994 16.5303C46.5994 13.4042 44.1826 10.938 41.0566 10.938C37.9305 10.938 35.489 13.4042 35.489 16.5303C35.489 19.6564 37.9305 22.1309 41.0566 22.1309C44.1826 22.1309 46.5994 19.6564 46.5994 16.5303Z" fill="#232E52"/>
<path d="M56.786 9.7832V11.0452C54.5259 11.0452 52.3979 12.4391 52.3979 15.7962V23.1041H51.0864V9.96466H52.3979V12.5381C53.297 10.4678 55.0043 9.7832 56.786 9.7832Z" fill="#232E52"/>
<path d="M88.3519 26.9646L85.9022 25.5212C87.3291 23.0879 88.088 20.3 88.088 17.4544C88.088 13.8746 86.925 10.4846 84.731 7.66372L86.9662 5.92334C89.5562 9.24738 90.9254 13.2313 90.9254 17.4544C90.9254 20.8032 90.0346 24.0942 88.3519 26.9646Z" fill="#2163EB"/>
<path d="M92.7317 29.2658L90.282 27.8306C92.0884 24.7622 93.0369 21.2568 93.0369 17.677C93.0369 13.1735 91.4267 8.47408 88.6636 4.92734L90.8988 3.17871C94.0579 7.23684 95.8743 12.5301 95.8743 17.677C95.8743 21.7599 94.7856 25.7685 92.7317 29.2658Z" fill="#2163EB"/>
<path d="M97.2184 31.8408L94.7687 30.4056C96.5751 27.3373 98.1626 20.8217 98.1626 17.242C98.1626 12.7384 95.2966 5.29537 92.5334 1.74863L94.7687 0C97.9278 4.05813 101 12.0951 101 17.242C101 21.3249 99.2722 28.3436 97.2184 31.8408Z" fill="#2163EB"/>
<path fill-rule="evenodd" clip-rule="evenodd" d="M79.1801 23.9785C76.3757 23.9785 73.992 22.6505 72.7052 20.4483C71.3938 22.6258 69.0348 23.9785 66.4036 23.9785C64.3828 23.9785 62.6176 23.2279 61.3392 21.8752V23.6898H58.8564V4.125H61.3392V11.1937C62.6176 9.84103 64.3828 9.09044 66.4036 9.09044C69.0348 9.09044 71.3938 10.4432 72.7052 12.6207C73.992 10.4184 76.3262 9.09044 79.0729 9.09044C83.6671 9.09044 86.1499 12.9506 86.1499 16.5881C86.1499 16.7036 86.1416 16.819 86.1334 16.9345C86.1251 17.0335 86.1251 17.1242 86.1251 17.215V17.8006H74.3301C74.8415 20.0688 76.7304 21.5453 79.2048 21.5453C81.0112 21.5453 82.5206 20.7617 83.2382 19.4585L83.5269 18.9223L85.7127 20.2173L85.4075 20.7205C84.1785 22.7578 81.8525 23.9785 79.1801 23.9785ZM66.3211 11.5237C63.5249 11.5237 61.3392 13.726 61.3392 16.5304C61.3392 19.343 63.5249 21.5453 66.3211 21.5453C69.1173 21.5453 71.303 19.343 71.303 16.5304C71.303 13.726 69.1173 11.5237 66.3211 11.5237ZM83.5269 15.3426C83.0155 12.7114 80.9865 11.5237 79.0729 11.5237C76.6314 11.5237 74.7838 13.0331 74.3136 15.3426H83.5269Z" fill="#2163EB"/>
</svg>
