<svg width="101" height="32" viewBox="0 0 101 32" fill="none" xmlns="http://www.w3.org/2000/svg">
<path fill-rule="evenodd" clip-rule="evenodd" d="M15.5727 13.9077C15.5727 18.9804 11.9764 23.1045 6.90378 23.1045H0V4.71094H6.90378C11.9764 4.71094 15.5727 8.83506 15.5727 13.9077ZM14.2117 13.9077C14.2117 9.54441 11.2424 6.03066 6.90378 6.03066H1.39395V21.7848H6.90378C11.2424 21.7848 14.2117 18.271 14.2117 13.9077Z" fill="white"/>
<path fill-rule="evenodd" clip-rule="evenodd" d="M17.9399 16.5303C17.9399 12.6454 21.0083 9.67603 24.8437 9.67603C28.6544 9.67603 31.731 12.6454 31.731 16.5303C31.731 20.4235 28.6544 23.3929 24.8437 23.3929C21.0083 23.3929 17.9399 20.4235 17.9399 16.5303ZM30.3865 16.5303C30.3865 13.4042 27.9698 10.938 24.8437 10.938C21.7176 10.938 19.2762 13.4042 19.2762 16.5303C19.2762 19.6564 21.7176 22.1309 24.8437 22.1309C27.9698 22.1309 30.3865 19.6564 30.3865 16.5303Z" fill="white"/>
<path fill-rule="evenodd" clip-rule="evenodd" d="M33.9827 16.5303C33.9827 12.6454 37.0593 9.67603 40.8947 9.67603C44.7054 9.67603 47.7737 12.6454 47.7737 16.5303C47.7737 20.4235 44.7054 23.3929 40.8947 23.3929C37.0593 23.3929 33.9827 20.4235 33.9827 16.5303ZM46.4375 16.5303C46.4375 13.4042 44.0208 10.938 40.8947 10.938C37.7686 10.938 35.3271 13.4042 35.3271 16.5303C35.3271 19.6564 37.7686 22.1309 40.8947 22.1309C44.0208 22.1309 46.4375 19.6564 46.4375 16.5303Z" fill="white"/>
<path d="M56.6241 9.7832V11.0452C54.3641 11.0452 52.236 12.4391 52.236 15.7962V23.1041H50.9246V9.96466H52.236V12.5381C53.1351 10.4678 54.8425 9.7832 56.6241 9.7832Z" fill="white"/>
<path d="M88.1901 26.9646L85.7403 25.5212C87.1673 23.0879 87.9261 20.3 87.9261 17.4544C87.9261 13.8746 86.7631 10.4846 84.5691 7.66372L86.8044 5.92334C89.3943 9.24738 90.7635 13.2313 90.7635 17.4544C90.7635 20.8032 89.8727 24.0942 88.1901 26.9646Z" fill="white"/>
<path d="M92.5699 29.2658L90.1202 27.8306C91.9265 24.7622 92.8751 21.2568 92.8751 17.677C92.8751 13.1735 91.2649 8.47408 88.5017 4.92734L90.737 3.17871C93.8961 7.23684 95.7125 12.5301 95.7125 17.677C95.7125 21.7599 94.6237 25.7685 92.5699 29.2658Z" fill="white"/>
<path d="M97.0566 31.8408L94.6068 30.4056C96.4132 27.3373 98.0008 20.8217 98.0008 17.242C98.0008 12.7384 95.1347 5.29537 92.3716 1.74863L94.6069 0C97.7659 4.05813 100.838 12.0951 100.838 17.242C100.838 21.3249 99.1104 28.3436 97.0566 31.8408Z" fill="white"/>
<path fill-rule="evenodd" clip-rule="evenodd" d="M79.0182 23.9785C76.2138 23.9785 73.8301 22.6505 72.5434 20.4483C71.2319 22.6258 68.8729 23.9785 66.2417 23.9785C64.2209 23.9785 62.4558 23.2279 61.1773 21.8752V23.6898H58.6946V4.125H61.1773V11.1937C62.4558 9.84103 64.2209 9.09044 66.2417 9.09044C68.8729 9.09044 71.2319 10.4432 72.5434 12.6207C73.8301 10.4184 76.1644 9.09044 78.911 9.09044C83.5053 9.09044 85.988 12.9506 85.988 16.5881C85.988 16.7036 85.9798 16.819 85.9715 16.9345C85.9633 17.0335 85.9633 17.1242 85.9633 17.215V17.8006H74.1683C74.6797 20.0688 76.5685 21.5453 79.043 21.5453C80.8493 21.5453 82.3588 20.7617 83.0764 19.4585L83.3651 18.9223L85.5508 20.2173L85.2457 20.7205C84.0167 22.7578 81.6907 23.9785 79.0182 23.9785ZM66.1592 11.5237C63.3631 11.5237 61.1773 13.726 61.1773 16.5304C61.1773 19.343 63.3631 21.5453 66.1592 21.5453C68.9554 21.5453 71.1412 19.343 71.1412 16.5304C71.1412 13.726 68.9554 11.5237 66.1592 11.5237ZM83.3651 15.3426C82.8537 12.7114 80.8246 11.5237 78.911 11.5237C76.4695 11.5237 74.6219 13.0331 74.1518 15.3426H83.3651Z" fill="white"/>
</svg>
